####
#
# OBJ File Generated by Meshlab
#
####
# Object clear_box_top.obj
#
# Vertices: 8
# Faces: 12
#
####
vn 1.570796 1.570794 1.570796
v 0.092075 0.161925 0.001587
vn 1.570801 -1.570796 1.570796
v 0.092075 -0.161925 0.001587
vn 1.570801 1.570796 -1.570796
v 0.092075 0.161925 0.000000
vn 1.570796 -1.570794 -1.570796
v 0.092075 -0.161925 0.000000
vn -1.570801 1.570796 1.570796
v -0.092075 0.161925 0.001587
vn -1.570796 1.570794 -1.570796
v -0.092075 0.161925 0.000000
vn -1.570796 -1.570794 1.570796
v -0.092075 -0.161925 0.001587
vn -1.570801 -1.570796 -1.570796
v -0.092075 -0.161925 0.000000
# 8 vertices, 0 vertices normals

f 1//1 2//2 3//3
f 3//3 2//2 4//4
f 5//5 1//1 6//6
f 6//6 1//1 3//3
f 7//7 5//5 8//8
f 8//8 5//5 6//6
f 2//2 7//7 4//4
f 4//4 7//7 8//8
f 8//8 6//6 4//4
f 4//4 6//6 3//3
f 5//5 7//7 1//1
f 1//1 7//7 2//2
# 12 faces, 0 coords texture

# End of File
