####
#
# OBJ File Generated by Meshlab
#
####
# Object clear_box_side.obj
#
# Vertices: 8
# Faces: 12
#
####
vn -1.570800 1.570796 1.570796
v -0.155575 0.114300 0.001587
vn 1.570796 1.570804 1.570796
v 0.155575 0.114300 0.001587
vn -1.570796 1.570804 -1.570796
v -0.155575 0.114300 0.000000
vn 1.570800 1.570796 -1.570796
v 0.155575 0.114300 0.000000
vn 1.570800 -1.570796 1.570796
v 0.155575 -0.114300 0.001587
vn 1.570796 -1.570804 -1.570796
v 0.155575 -0.114300 0.000000
vn -1.570800 -1.570796 -1.570796
v -0.155575 -0.114300 0.000000
vn -1.570796 -1.570804 1.570796
v -0.155575 -0.114300 0.001587
# 8 vertices, 0 vertices normals

f 1//1 2//2 3//3
f 3//3 2//2 4//4
f 2//2 5//5 4//4
f 4//4 5//5 6//6
f 7//7 3//3 6//6
f 6//6 3//3 4//4
f 1//1 8//8 2//2
f 2//2 8//8 5//5
f 5//5 8//8 6//6
f 6//6 8//8 7//7
f 8//8 1//1 7//7
f 7//7 1//1 3//3
# 12 faces, 0 coords texture

# End of File
